<svg version="1.1" xmlns="http://www.w3.org/2000/svg" viewBox="0 0 1145.872690568953 492.2331299329112" width="1145.872690568953" height="492.2331299329112">
  <!-- svg-source:excalidraw -->
  
  <defs>
    <style class="style-fonts">
      @font-face {
        font-family: "Virgil";
        src: url("https://excalidraw.com/Virgil.woff2");
      }
      @font-face {
        font-family: "Cascadia";
        src: url("https://excalidraw.com/Cascadia.woff2");
      }
    </style>
    
  </defs>
  <rect x="0" y="0" width="1145.872690568953" height="492.2331299329112" fill="#ffffff"></rect><g stroke-linecap="round" transform="translate(448.9446052682283 10) rotate(0 258.5 236.1165649664556)"><path d="M-0.58 0.33 C122.66 1.51, 243.47 0.85, 517.51 -0.64 M0.09 -0.27 C120.82 0.37, 241.78 0.89, 516.9 -0.05 M517.4 0.15 C515.49 179.85, 515.42 358.79, 516.8 472.41 M516.68 0.16 C517.78 102.16, 517.44 203.88, 516.69 471.93 M517.7 472.81 C372.78 472.55, 229.22 472.91, 0.32 472.27 M516.81 472.06 C371.92 473.41, 225.94 473.78, 0.23 472.39 M0.03 473.03 C0.7 361.48, -0.1 250.26, 0.07 0.37 M0.3 472.22 C0.77 284.43, 0.59 96.49, 0.22 0.44" stroke="#1e1e1e" stroke-width="1" fill="none"></path></g><g stroke-linecap="round"><g transform="translate(450.3396605762648 53.92301945701081) rotate(0 89.3921206445807 -0.5438648962395973)"><path d="M1.75 1.06 C42.92 -1.52, 89.35 -2.76, 176.6 -1.86 M0.06 -0.64 C48.45 1.65, 95.71 0.64, 178.73 -1.26" stroke="#1e1e1e" stroke-width="1" fill="none"></path></g></g><mask></mask><g stroke-linecap="round"><g transform="translate(628.2643183609282 51.369077000771654) rotate(0 14.882703424753004 -19.875222920278475)"><path d="M-1.13 -0.58 C11.66 -15.71, 19.8 -29.05, 30.89 -40.39 M0.47 0.66 C7.04 -9.39, 15.38 -19.15, 30.51 -40.41" stroke="#1e1e1e" stroke-width="1" fill="none"></path></g></g><mask></mask><g transform="translate(455.9388983763861 15.256827811705193) rotate(0 89.04991149902344 12.5)"><text x="0" y="0" font-family="Virgil, Segoe UI Emoji" font-size="20px" fill="#1e1e1e" text-anchor="start" style="white-space: pre;" direction="ltr" dominant-baseline="text-before-edge">Plateforme Cedille</text></g><g stroke-linecap="round" transform="translate(539.1988261186632 116.58526184033462) rotate(0 26.505165268317228 23.24299108144737)"><path d="M-1.33 -1.01 C13.76 0.9, 27.38 0.54, 51.73 0.95 M0.8 -0.4 C18.44 0.51, 39.02 -0.67, 53.32 -0.81 M51.33 0.32 C53.21 10.65, 53.64 26.17, 53.74 46.95 M52.79 -0.81 C53.04 13.68, 53.41 25.08, 52.48 46.28 M52.64 47.09 C38.73 45.58, 21.13 48.18, -0.47 45.37 M52.36 46.15 C34.11 46.74, 14.85 46.7, 0.16 45.59 M1.95 46.06 C-1.52 34.88, -0.1 22, -0.36 0.63 M0.75 45.76 C-1.21 36.51, -0.77 25.62, 0.34 0.67" stroke="#1e1e1e" stroke-width="1" fill="none"></path></g><g transform="translate(549.2840084768243 127.328252921782) rotate(0 16.41998291015625 12.5)"><text x="16.41998291015625" y="0" font-family="Virgil, Segoe UI Emoji" font-size="20px" fill="#1e1e1e" text-anchor="middle" style="white-space: pre;" direction="ltr" dominant-baseline="text-before-edge">App</text></g><g stroke-linecap="round" transform="translate(535.214215856447 170.44837891223528) rotate(0 164.73979643692542 86.8553877254086)"><path d="M-0.42 0.32 C71.46 1.22, 143.91 1.79, 330.39 -0.33 M-0.67 0.31 C95.05 0.41, 190.09 0.36, 329.21 -0.15 M329.78 -1.43 C328.76 57.59, 328.75 111.65, 328.99 172.32 M329.84 0.88 C329.83 39.89, 328.57 80.61, 329.41 174.11 M330.32 173.07 C228.47 175.53, 128.3 173.62, 0.94 174.5 M329.91 173.74 C217.98 172.96, 105.37 172.35, -0.14 173.77 M-1.48 175.07 C-1.75 115.86, -2.05 55.76, -1.32 0.96 M-0.98 174.61 C-1.84 105.41, -0.95 36.02, -0.02 0.25" stroke="#1e1e1e" stroke-width="1" fill="none"></path></g><g stroke-linecap="round" transform="translate(536.4243162911107 350.757486075143) rotate(0 51.94552590590524 20.022255192878333)"><path d="M-1.36 0.11 C24.64 0.7, 53.16 -0.73, 103.65 1.61 M0.17 -0.73 C27.27 -1.28, 53.52 -0.69, 104.09 -0.84 M104.63 1.99 C104.68 13.12, 103.46 23.93, 102.54 39.61 M104.62 -0.51 C103.51 8.56, 103.96 17.92, 103.94 39.86 M103.04 41.72 C69.11 38.44, 36.65 40.71, 0.81 38.74 M104.79 40.04 C76.34 39.18, 48.25 40.16, 0.41 41.02 M-0.06 41.49 C-0.06 29.51, -1.03 18.67, 1.97 1.49 M-0.55 40.93 C0.74 31.63, 0.37 22.12, 0.54 0.32" stroke="#1e1e1e" stroke-width="1" fill="none"></path></g><g transform="translate(551.8398815646917 358.2797412680213) rotate(0 36.52996063232422 12.5)"><text x="36.52996063232422" y="0" font-family="Virgil, Segoe UI Emoji" font-size="20px" fill="#1e1e1e" text-anchor="middle" style="white-space: pre;" direction="ltr" dominant-baseline="text-before-edge">Serveur</text></g><g stroke-linecap="round" transform="translate(650.1524114713095 351.9660359548228) rotate(0 51.94552590590524 20.022255192878333)"><path d="M-1.28 0.95 C34.94 -0.55, 66.99 1.55, 103.08 -1.97 M0.31 -0.81 C35.42 0.54, 71.85 -0.08, 104.05 0.15 M104.62 0.46 C103.55 7.75, 102.69 17.85, 102.27 40.76 M103.36 -0.2 C104.11 15.92, 104.23 30.86, 104.19 40.66 M103.42 38.92 C78.95 42.06, 52.09 39.61, -0.66 41.3 M104.05 39.15 C72.14 40.12, 41.23 41.02, -0.21 39.31 M-0.36 40.68 C-1.31 26.28, 1.98 12.07, -1.46 -1.97 M0.34 40.71 C0.2 24.68, 0.76 9.13, -0.06 0.37" stroke="#1e1e1e" stroke-width="1" fill="none"></path></g><g transform="translate(665.5679767448905 359.48829114770115) rotate(0 36.52996063232422 12.5)"><text x="36.52996063232422" y="0" font-family="Virgil, Segoe UI Emoji" font-size="20px" fill="#1e1e1e" text-anchor="middle" style="white-space: pre;" direction="ltr" dominant-baseline="text-before-edge">Serveur</text></g><g stroke-linecap="round" transform="translate(761.5624359823823 350.0058274300718) rotate(0 51.94552590590524 20.022255192878333)"><path d="M1.33 -0.49 C31.52 1.11, 62.71 -2.46, 104.79 0.35 M-0.4 -0.22 C23.75 0.01, 47.26 1, 103.17 0.37 M103.4 -1.39 C102.69 15.56, 102.41 32.71, 105.64 41.5 M103.82 0.4 C103.73 9.77, 103.98 20.53, 103.42 39.62 M105.26 41.19 C64.85 38.16, 23.53 40.71, 0.07 41.84 M103.68 40.12 C73.16 40.09, 41.4 38.37, 0.68 40.02 M-1.32 41.01 C2.04 26.63, -1.39 8.26, 1.8 -1.1 M-0.02 40.3 C0.4 24.81, -0.2 9.29, -0.26 0.83" stroke="#1e1e1e" stroke-width="1" fill="none"></path></g><g transform="translate(776.9780012559634 357.52808262295014) rotate(0 36.52996063232422 12.5)"><text x="36.52996063232422" y="0" font-family="Virgil, Segoe UI Emoji" font-size="20px" fill="#1e1e1e" text-anchor="middle" style="white-space: pre;" direction="ltr" dominant-baseline="text-before-edge">Serveur</text></g><g stroke-linecap="round" transform="translate(605.6656251761349 115.36194652025858) rotate(0 26.505165268317228 23.24299108144737)"><path d="M-0.24 1.61 C17.61 -1.84, 37.73 0.48, 51.54 0.63 M0.2 -0.84 C11.75 0.27, 22.46 0.49, 54.01 0.37 M51.66 -0.44 C51.27 15.74, 54.65 31.5, 51.98 45.43 M53.06 -0.19 C53.28 13.63, 52.51 25.59, 53.85 46.25 M53.82 45.18 C39.41 48.04, 27.22 48.59, -0.01 46.81 M53.42 47.46 C41.66 45.79, 31.41 46.5, 0.72 46.31 M1.97 47.98 C-1.15 29.1, 2.11 14.56, 1.77 0.68 M0.54 46.81 C-0.05 29.8, -0.25 13.2, 1 -0.82" stroke="#1e1e1e" stroke-width="1" fill="none"></path></g><g transform="translate(615.750807534296 126.10493760170596) rotate(0 16.41998291015625 12.5)"><text x="16.41998291015625" y="0" font-family="Virgil, Segoe UI Emoji" font-size="20px" fill="#1e1e1e" text-anchor="middle" style="white-space: pre;" direction="ltr" dominant-baseline="text-before-edge">App</text></g><g stroke-linecap="round" transform="translate(670.0935653668143 116.99303361369334) rotate(0 26.505165268317228 23.24299108144737)"><path d="M-0.81 -1.97 C15.51 -0.08, 27.76 0.2, 51.38 -0.8 M0.16 0.15 C13.99 0.81, 30.42 0.81, 53.24 -0.25 M51.39 0.71 C54.45 12.17, 51.67 20.38, 52.61 46.34 M53.31 0.62 C52.56 15.38, 53.87 31.37, 52.45 47.17 M52.35 47.74 C34.14 47.94, 15.11 46.46, -1.8 46.07 M52.8 45.75 C37.36 46.97, 21.08 46.82, 0.32 45.83 M-1.46 44.52 C1.34 29.2, 1.32 14.8, 1.34 -0.04 M-0.06 46.86 C-0.51 32.19, 0.75 15.42, 0.15 0.1" stroke="#1e1e1e" stroke-width="1" fill="none"></path></g><g transform="translate(680.1787477249754 127.73602469514071) rotate(0 16.41998291015625 12.5)"><text x="16.41998291015625" y="0" font-family="Virgil, Segoe UI Emoji" font-size="20px" fill="#1e1e1e" text-anchor="middle" style="white-space: pre;" direction="ltr" dominant-baseline="text-before-edge">App</text></g><g stroke-linecap="round" transform="translate(737.7836797443626 116.17749006697625) rotate(0 26.505165268317228 23.24299108144737)"><path d="M0.9 0.35 C18.69 1.15, 38.69 -0.28, 52.56 0.4 M-0.72 0.37 C12.44 0.29, 23.13 -0.33, 52.32 -0.67 M54.76 1.45 C51.61 11.88, 52.23 25.71, 53.81 46.58 M52.54 -0.42 C53.99 12.84, 52.59 26.83, 53.58 46.89 M53.08 48.28 C40.56 47.14, 26.32 46.4, 0.16 47.31 M53.69 46.46 C32.66 45.92, 11.18 45.43, 0.48 47.47 M1.8 45.39 C2.11 29.75, 1.68 11.61, 0.51 1.07 M-0.26 47.32 C1.03 30.22, 0.18 15.69, 0.89 -0.44" stroke="#1e1e1e" stroke-width="1" fill="none"></path></g><g transform="translate(747.8688621025237 126.92048114842362) rotate(0 16.41998291015625 12.5)"><text x="16.41998291015625" y="0" font-family="Virgil, Segoe UI Emoji" font-size="20px" fill="#1e1e1e" text-anchor="middle" style="white-space: pre;" direction="ltr" dominant-baseline="text-before-edge">App</text></g><g stroke-linecap="round" transform="translate(806.2893376686286 116.17749006697625) rotate(0 26.505165268317228 23.24299108144737)"><path d="M-1.47 0.63 C9.05 -0.89, 20.91 0.31, 51.33 0.32 M1 0.37 C16.94 -0.44, 32.72 -0.87, 52.79 -0.81 M51.98 -1.05 C53.01 15.45, 54.22 31.29, 52.64 47.09 M53.85 -0.24 C52.23 17.5, 53.37 34.03, 52.36 46.15 M53.01 46.81 C31.99 46.54, 14.73 47.79, 1.95 46.06 M53.73 46.31 C41.34 45.81, 29.52 47.45, 0.75 45.76 M1.77 47.17 C0.92 37.07, 0.09 28.81, 0.65 -0.12 M1 45.67 C0.27 30.9, 1.01 14.68, 0.04 0.97" stroke="#1e1e1e" stroke-width="1" fill="none"></path></g><g transform="translate(816.3745200267897 126.92048114842362) rotate(0 16.41998291015625 12.5)"><text x="16.41998291015625" y="0" font-family="Virgil, Segoe UI Emoji" font-size="20px" fill="#1e1e1e" text-anchor="middle" style="white-space: pre;" direction="ltr" dominant-baseline="text-before-edge">App</text></g><g stroke-linecap="round" transform="translate(37.93922698479321 341.4398919101127) rotate(0 11.220782470409574 10.496861020705751)"><path d="M8.15 0.37 C10.43 -0.34, 14.42 -0.65, 16.73 0.56 C19.05 1.77, 21.12 5.4, 22.03 7.65 C22.95 9.9, 23.09 12.22, 22.22 14.07 C21.36 15.92, 19.05 17.66, 16.83 18.76 C14.6 19.86, 11.35 20.82, 8.88 20.66 C6.41 20.5, 3.33 19.33, 2 17.8 C0.67 16.27, 0.89 13.89, 0.88 11.49 C0.87 9.09, 0.51 5.34, 1.93 3.43 C3.36 1.52, 7.97 0.56, 9.43 0.03 C10.89 -0.49, 10.66 0.06, 10.69 0.3 M15.88 0.14 C18.08 0.94, 18.64 3.85, 19.86 5.91 C21.08 7.97, 23.55 10.53, 23.2 12.5 C22.86 14.48, 19.56 16.34, 17.8 17.76 C16.03 19.18, 14.63 20.87, 12.61 21.04 C10.6 21.21, 7.73 20.41, 5.71 18.8 C3.69 17.19, 1.29 13.57, 0.5 11.39 C-0.29 9.21, -0.21 7.27, 0.97 5.74 C2.15 4.22, 5.35 3.31, 7.58 2.25 C9.8 1.19, 12.98 -0.35, 14.31 -0.61 C15.64 -0.88, 15.4 0.34, 15.58 0.65" stroke="#1e1e1e" stroke-width="1" fill="none"></path></g><g stroke-linecap="round"><g transform="translate(49.133536457263745 361.9969257790864) rotate(0 0.49474998156074435 12.823968625676002)"><path d="M-0.48 -0.27 C-0.42 4.24, 0.54 21.5, 0.74 26.1 M1.47 -1.46 C1.36 3.26, 0.16 22.08, -0.08 27.11" stroke="#1e1e1e" stroke-width="1" fill="none"></path></g></g><mask></mask><g stroke-linecap="round"><g transform="translate(38.937952781763215 372.93852777230666) rotate(0 9.994765435777367 0.5757885021372431)"><path d="M0.24 -1.01 C3.83 -0.89, 17.78 0.15, 21.08 0.43 M-1.09 1.08 C2.4 1.44, 16.31 2.48, 20.24 2.06" stroke="#1e1e1e" stroke-width="1" fill="none"></path></g></g><mask></mask><g stroke-linecap="round"><g transform="translate(49.3822092298368 388.3562396718444) rotate(0 5.091221863112935 5.432548607119543)"><path d="M0.19 0.18 C1.67 2.29, 7.26 9.73, 9.09 11.63 M-1.16 -0.77 C0.67 1.06, 9.32 8.03, 11.35 9.74" stroke="#1e1e1e" stroke-width="1" fill="none"></path></g></g><mask></mask><g stroke-linecap="round"><g transform="translate(48.636190912117286 387.61022135412475) rotate(0 -3.59488849355256 6.997617649163544)"><path d="M-0.86 0.44 C-2.19 2.81, -6.46 12.17, -7.76 14.37 M0.89 -0.37 C-0.51 1.61, -6.38 9.95, -8.08 12.47" stroke="#1e1e1e" stroke-width="1" fill="none"></path></g></g><mask></mask><g transform="translate(10 393.6037106779985) rotate(0 40.96996307373047 25)"><text x="40.96996307373047" y="0" font-family="Virgil, Segoe UI Emoji" font-size="20px" fill="#1e1e1e" text-anchor="middle" style="white-space: pre;" direction="ltr" dominant-baseline="text-before-edge">Club</text><text x="40.96996307373047" y="25" font-family="Virgil, Segoe UI Emoji" font-size="20px" fill="#1e1e1e" text-anchor="middle" style="white-space: pre;" direction="ltr" dominant-baseline="text-before-edge">Étudiant</text></g><g stroke-linecap="round" transform="translate(1077.2179288870122 214.05595239478873) rotate(0 11.220782470409517 10.496861020705751)"><path d="M6.59 0.98 C8.95 0.29, 13.65 0.74, 15.95 1.37 C18.26 1.99, 19.42 2.92, 20.43 4.74 C21.45 6.55, 22.34 9.96, 22.07 12.27 C21.8 14.58, 20.66 17.09, 18.82 18.6 C16.98 20.1, 13.38 21.39, 11.01 21.3 C8.65 21.21, 6.49 19.42, 4.61 18.06 C2.73 16.7, 0.3 15.37, -0.26 13.14 C-0.81 10.91, -0.33 6.72, 1.28 4.67 C2.89 2.62, 7.87 1.68, 9.41 0.84 C10.95 -0.01, 10.64 -0.57, 10.51 -0.39 M11.66 -1.35 C13.67 -1.42, 16.39 0.75, 18.27 2.7 C20.15 4.64, 22.55 8.31, 22.92 10.32 C23.3 12.34, 21.69 13.12, 20.52 14.8 C19.35 16.48, 17.93 19.51, 15.89 20.38 C13.85 21.25, 10.61 20.99, 8.28 20.03 C5.95 19.06, 3.1 16.27, 1.88 14.59 C0.65 12.91, 0.36 12.19, 0.93 9.96 C1.5 7.74, 3.78 2.68, 5.28 1.24 C6.79 -0.2, 9.06 1.3, 9.95 1.35 C10.83 1.4, 10.27 1.42, 10.6 1.54" stroke="#1e1e1e" stroke-width="1" fill="none"></path></g><g stroke-linecap="round"><g transform="translate(1088.412238359483 234.61298626376254) rotate(0 0.03976030257695129 13.173923000429852)"><path d="M-0.83 -0.81 C-0.84 3.6, -0.06 21.3, 0.24 26.13 M0.93 1.38 C0.72 5.93, -0.76 22.99, -0.85 27.16" stroke="#1e1e1e" stroke-width="1" fill="none"></path></g></g><mask></mask><g stroke-linecap="round"><g transform="translate(1078.2166546839824 245.5545882569828) rotate(0 10.526642111762158 0.16270827856004644)"><path d="M-0.26 -0.97 C3.43 -0.62, 17.64 1.2, 21.32 1.3 M1.8 1.13 C5.44 1.24, 17.32 -0.19, 20.59 -0.27" stroke="#1e1e1e" stroke-width="1" fill="none"></path></g></g><mask></mask><g stroke-linecap="round"><g transform="translate(1088.660911132056 260.9723001565204) rotate(0 5.005549268855361 6.172734830931006)"><path d="M0.43 1.05 C2.27 2.98, 9.34 8.92, 10.82 10.57 M-0.81 0.56 C0.98 2.72, 8.82 9.86, 10.33 11.79" stroke="#1e1e1e" stroke-width="1" fill="none"></path></g></g><mask></mask><g stroke-linecap="round"><g transform="translate(1087.9148928143366 260.2262818388009) rotate(0 -4.355922404708053 7.238932267304051)"><path d="M0.87 -0.62 C-0.8 1.49, -7.93 11.18, -9.58 13.68 M-0.13 1.67 C-1.44 4.48, -5.58 13.32, -7.2 15.09" stroke="#1e1e1e" stroke-width="1" fill="none"></path></g></g><mask></mask><g transform="translate(1052.8686906107152 269.67075304137643) rotate(0 37.379974365234375 12.5)"><text x="37.379974365234375" y="0" font-family="Virgil, Segoe UI Emoji" font-size="20px" fill="#1e1e1e" text-anchor="middle" style="white-space: pre;" direction="ltr" dominant-baseline="text-before-edge">TI ÉTS</text></g><g stroke-linecap="round" transform="translate(35.84890009278399 52.785078666173604) rotate(0 11.220782470409574 10.496861020705751)"><path d="M12.11 -0.47 C14.35 -0.46, 16.55 1.98, 18.21 3.46 C19.88 4.93, 21.53 6.18, 22.08 8.36 C22.62 10.54, 22.63 14.63, 21.48 16.54 C20.34 18.44, 17.65 19.07, 15.21 19.79 C12.76 20.52, 9.1 21.46, 6.8 20.9 C4.5 20.34, 2.5 18.47, 1.41 16.42 C0.31 14.37, -0.1 10.98, 0.22 8.59 C0.54 6.2, 1.1 3.41, 3.32 2.09 C5.54 0.76, 11.38 0.85, 13.53 0.62 C15.69 0.4, 16.41 0.5, 16.24 0.72 M11.53 -0.99 C13.75 -0.86, 17.06 2.43, 19.03 3.83 C21 5.24, 23.28 5.24, 23.36 7.43 C23.45 9.62, 21.04 14.6, 19.54 16.96 C18.05 19.33, 16.31 20.89, 14.39 21.64 C12.47 22.38, 10.19 22.31, 8.05 21.42 C5.91 20.52, 2.74 18.28, 1.56 16.26 C0.37 14.24, 0.58 11.5, 0.95 9.31 C1.32 7.12, 2.17 4.46, 3.79 3.11 C5.41 1.77, 9.2 1.94, 10.67 1.25 C12.13 0.56, 12.45 -1.01, 12.56 -1.01" stroke="#1e1e1e" stroke-width="1" fill="none"></path></g><g stroke-linecap="round"><g transform="translate(47.04320956525464 73.34211253514741) rotate(0 -0.25562266997462757 13.228666629378836)"><path d="M0.06 -0.22 C0.22 4.34, 0.88 23.38, 0.86 27.85 M-1.37 -1.39 C-1.33 2.79, 0.06 21.27, 0.1 26.11" stroke="#1e1e1e" stroke-width="1" fill="none"></path></g></g><mask></mask><g stroke-linecap="round"><g transform="translate(36.84762588975411 84.28371452836768) rotate(0 9.710010575376202 0.3755193919473072)"><path d="M0.36 0.74 C3.74 0.73, 16.74 -0.13, 20.33 -0.26 M-0.91 0.08 C2.26 0.26, 15.32 0.84, 19.08 1.01" stroke="#1e1e1e" stroke-width="1" fill="none"></path></g></g><mask></mask><g stroke-linecap="round"><g transform="translate(47.291882337827815 99.70142642790529) rotate(0 5.193977168237325 5.236828356340652)"><path d="M-0.56 -0.51 C1.2 1.19, 9.31 8.82, 10.95 10.91 M1.34 -1.82 C3.01 -0.01, 9.39 10.31, 10.53 12.29" stroke="#1e1e1e" stroke-width="1" fill="none"></path></g></g><mask></mask><g stroke-linecap="round"><g transform="translate(46.5458640201083 98.95540811018577) rotate(0 -4.310961715163387 6.633818089093552)"><path d="M1 -0.28 C-0.51 2.26, -8.08 12.3, -9.62 14.75 M0.07 -1.48 C-1 0.77, -5.81 10.75, -7.27 13.05" stroke="#1e1e1e" stroke-width="1" fill="none"></path></g></g><mask></mask><g transform="translate(18.359670056233085 104.9488974340594) rotate(0 30.51996612548828 25)"><text x="30.51996612548828" y="0" font-family="Virgil, Segoe UI Emoji" font-size="20px" fill="#1e1e1e" text-anchor="middle" style="white-space: pre;" direction="ltr" dominant-baseline="text-before-edge">SRE</text><text x="30.51996612548828" y="25" font-family="Virgil, Segoe UI Emoji" font-size="20px" fill="#1e1e1e" text-anchor="middle" style="white-space: pre;" direction="ltr" dominant-baseline="text-before-edge">Cedille</text></g><g stroke-linecap="round" transform="translate(150.44331005257516 185.04268253695489) rotate(0 83.98977346408452 23.650762854806146)"><path d="M0.81 -1.3 C40.32 0.29, 82.03 0.83, 167.97 0.32 M0.41 0.98 C35.09 -0.87, 71.28 -0.16, 168.7 -0.18 M169.94 1.49 C166.21 13.72, 169.47 30.28, 169.75 47.99 M168.52 0.32 C167.91 17.73, 167.71 35.55, 168.98 46.48 M167.1 47.37 C117.01 47.62, 60.78 48.25, -1.53 48.15 M167.83 48.21 C131.16 46.38, 93.74 45.69, -0.19 47.53 M1.24 48.74 C0.14 31.53, -0.9 20.18, 1 -0.23 M0.6 47.81 C0.09 33.68, -0.36 20.57, -0.24 0.48" stroke="#1e1e1e" stroke-width="1" fill="none"></path></g><g transform="translate(203.30310152203083 196.1934453917611) rotate(0 31.129981994628906 12.5)"><text x="31.129981994628906" y="0" font-family="Virgil, Segoe UI Emoji" font-size="20px" fill="#1e1e1e" text-anchor="middle" style="white-space: pre;" direction="ltr" dominant-baseline="text-before-edge">CI/CD</text></g><g stroke-linecap="round" transform="translate(567.7800932423222 228.01678383223657) rotate(0 43.63157974938372 17.766846799238238)"><path d="M-0.66 1.25 C31.26 2.36, 62.37 0.89, 85.47 -0.42 M-0.21 -0.74 C27.56 -0.88, 54.48 -1.03, 87.58 -0.66 M85.8 -1.97 C89.41 11.28, 89.38 25.43, 88.6 35.49 M87.2 0.37 C87.19 12.39, 88.45 22.31, 87.41 35.63 M89.21 34.36 C51.95 35.01, 17.84 36.42, -1.6 34.74 M87.39 35.27 C64.2 35.38, 41.61 36.56, -0.08 34.75 M-0.24 33.57 C-1.49 28.1, 0.78 19.49, -0.23 1.42 M0.43 35.55 C-0.24 27.41, -0.46 18.69, 0.92 0.18" stroke="#1e1e1e" stroke-width="1" fill="none"></path></g><g transform="translate(578.061705035163 233.2836306314748) rotate(0 33.34996795654297 12.5)"><text x="33.34996795654297" y="0" font-family="Virgil, Segoe UI Emoji" font-size="20px" fill="#1e1e1e" text-anchor="middle" style="white-space: pre;" direction="ltr" dominant-baseline="text-before-edge">GitOps</text></g><g stroke-linecap="round" transform="translate(148.63747014771718 274.3159918799339) rotate(0 84.00839495835885 42.5)"><path d="M0.07 1.8 C39.45 -0.73, 77.11 -1.47, 168.18 0.83 M0.68 -0.03 C67.51 1.06, 133.9 0.58, 168.5 0.98 M169.82 -1.1 C169.17 32.53, 168.74 63.65, 168.52 86.07 M167.76 0.83 C168.96 27.43, 168.11 56.6, 168.91 84.56 M166.64 84.45 C115.47 84.87, 64.38 83.22, -0.79 84.7 M167.68 84.05 C102.22 84.79, 36.72 83.77, -0.77 85.62 M-1.27 85.48 C1.1 53.16, -0.13 23.19, -1.12 1.19 M-0.02 85.54 C-0.61 55.63, 0.55 25.47, -0.89 0.02" stroke="#1e1e1e" stroke-width="1" fill="none"></path></g><g transform="translate(167.4159227842987 291.8159918799339) rotate(0 65.22994232177734 25)"><text x="65.22994232177734" y="0" font-family="Virgil, Segoe UI Emoji" font-size="20px" fill="#1e1e1e" text-anchor="middle" style="white-space: pre;" direction="ltr" dominant-baseline="text-before-edge">Code Source </text><text x="65.22994232177734" y="25" font-family="Virgil, Segoe UI Emoji" font-size="20px" fill="#1e1e1e" text-anchor="middle" style="white-space: pre;" direction="ltr" dominant-baseline="text-before-edge">Applicatif</text></g><g stroke-linecap="round"><g transform="translate(319.1008907045871 291.8426274991816) rotate(0 124.31929440498209 -17.299325006047468)"><path d="M0 0.26 C88.09 -14.58, 179.25 -25.98, 248.64 -34.61 M0.59 -0.15 C55.93 -8.23, 111.92 -14.63, 247.66 -34.86" stroke="#1e1e1e" stroke-width="1" fill="none"></path></g><g transform="translate(319.1008907045871 291.8426274991816) rotate(0 124.31929440498209 -17.299325006047468)"><path d="M249.6 -33.32 L233.79 -26.89 L233.07 -39.62 L249.49 -36.75" stroke="none" stroke-width="0" fill="#1e1e1e" fill-rule="evenodd"></path><path d="M247.65 -34.62 C241.77 -32.08, 238.69 -28.17, 236.58 -26.95 M248.2 -35 C245.12 -33.5, 242.4 -30.41, 235.67 -27.19 M236.24 -26.2 C235.48 -29.2, 234.59 -31.03, 233.71 -39.26 M235.75 -27.16 C234.63 -30.79, 234.48 -35.37, 233.32 -38.57 M232.15 -38.55 C235.53 -38.7, 239.61 -37.29, 249.02 -34.67 M233.15 -39.01 C237.15 -38.46, 240.57 -36.22, 248.2 -34.95 M247.66 -34.86 C247.66 -34.86, 247.66 -34.86, 247.66 -34.86 M247.66 -34.86 C247.66 -34.86, 247.66 -34.86, 247.66 -34.86" stroke="#1e1e1e" stroke-width="1" fill="none"></path></g></g><mask></mask><g stroke-linecap="round"><g transform="translate(319.4228569807444 207.75619664793942) rotate(0 103.53952525568434 7.7967555538207876)"><path d="M-1.59 -0.37 C81.81 6.27, 165.06 11.01, 208.23 16.18 M0.28 -0.58 C62.77 5.65, 125.26 8.58, 208.67 15.77" stroke="#1e1e1e" stroke-width="1" fill="none"></path></g><g transform="translate(319.4228569807444 207.75619664793942) rotate(0 103.53952525568434 7.7967555538207876)"><path d="M-2.91 -0.62 L12.22 -6.13 L13.33 5.06 L-0.64 -2.25" stroke="none" stroke-width="0" fill="#1e1e1e" fill-rule="evenodd"></path><path d="M-2.94 -0.69 C4 -1.85, 10.81 -4.85, 11.33 -4.67 M-1.35 -0.87 C2.9 -1.19, 7.27 -4.05, 11.7 -5.01 M13.29 -5.71 C12.64 -1.9, 12.5 0.44, 11.97 6.62 M12.53 -5.63 C12.77 -1.13, 11.87 4.61, 11.13 6.52 M10.3 6.36 C7.4 4.79, 5.78 3.21, -1.98 -0.88 M11.44 6.37 C8.25 5.94, 6.68 3.89, -2.32 -0.85 M-1.59 -0.37 C-1.59 -0.37, -1.59 -0.37, -1.59 -0.37 M-1.59 -0.37 C-1.59 -0.37, -1.59 -0.37, -1.59 -0.37" stroke="#1e1e1e" stroke-width="1" fill="none"></path></g><g transform="translate(319.4228569807444 207.75619664793942) rotate(0 103.53952525568434 7.7967555538207876)"><path d="M207.34 15.52 L194.39 20.58 L197.44 6.49 L209.61 13.89" stroke="none" stroke-width="0" fill="#1e1e1e" fill-rule="evenodd"></path><path d="M207.32 15.46 C203.31 18.46, 199.18 19.57, 193.51 22.04 M208.9 15.28 C204.89 18.04, 200.92 18.32, 193.88 21.7 M195.46 21 C195.07 18.6, 195.4 14.74, 196.09 8.05 M194.71 21.08 C195.44 15.91, 195.28 11.96, 195.24 7.95 M194.41 7.79 C198.52 10.11, 204.03 12.55, 208.27 15.27 M195.55 7.79 C197.7 10.33, 201.5 11.3, 207.93 15.3 M208.67 15.77 C208.67 15.77, 208.67 15.77, 208.67 15.77 M208.67 15.77 C208.67 15.77, 208.67 15.77, 208.67 15.77" stroke="#1e1e1e" stroke-width="1" fill="none"></path></g></g><mask></mask><g stroke-linecap="round" transform="translate(676.0425485187263 227.21986177979352) rotate(0 72.99114743121197 17.5)"><path d="M0.16 0.83 C48.09 -0.11, 90.81 1.67, 145.92 1.45 M0.48 0.98 C41.94 0.23, 81.41 1.86, 145.43 0.89 M146.49 1.07 C146.86 11.57, 146.96 22.87, 147.64 36.99 M146.87 -0.44 C146.07 8.61, 145.45 14.59, 145.71 34.24 M145.19 34.7 C97.78 34.68, 45.43 33.75, -1.89 34.62 M145.21 35.62 C99.5 33.73, 50.6 33.22, 0.24 35.5 M-1.12 36.19 C1.07 25.76, 0.07 14.75, 1.08 -0.49 M-0.89 35.02 C0.04 23.41, 0.65 11.4, -0.66 -0.13" stroke="#1e1e1e" stroke-width="1" fill="none"></path></g><g transform="translate(685.6937606472038 232.21986177979352) rotate(0 63.339935302734375 12.5)"><text x="63.339935302734375" y="0" font-family="Virgil, Segoe UI Emoji" font-size="20px" fill="#1e1e1e" text-anchor="middle" style="white-space: pre;" direction="ltr" dominant-baseline="text-before-edge">Observabilité</text></g><g transform="translate(544.6052594025089 179.38211493757854) rotate(0 53.349945068359375 12.5)"><text x="53.349945068359375" y="0" font-family="Virgil, Segoe UI Emoji" font-size="20px" fill="#1e1e1e" text-anchor="middle" style="white-space: pre;" direction="ltr" dominant-baseline="text-before-edge">Kubernetes</text></g><g stroke-linecap="round"><g transform="translate(536.7894384670592 204.6639648858195) rotate(0 60.416740835911696 0.8492179972942608)"><path d="M-1.48 1.36 C41.7 1.7, 83.16 0.89, 121.01 0.96 M-0.98 0.9 C48.17 1.78, 97.78 1.56, 122.31 0.25" stroke="#1e1e1e" stroke-width="1" fill="none"></path></g></g><mask></mask><g stroke-linecap="round"><g transform="translate(659.1209704746773 204.6639648858195) rotate(0 0.7087524514645338 -16.24116680163928)"><path d="M-0.06 1.45 C-0.1 -8.92, -1.07 -18.14, 1.97 -32.76 M-0.55 0.89 C0.68 -7.1, 0.32 -15.29, 0.54 -33.93" stroke="#1e1e1e" stroke-width="1" fill="none"></path></g></g><mask></mask><g stroke-linecap="round" transform="translate(1069.8420078857773 69.06768447325669) rotate(0 11.220782470409517 10.496861020705751)"><path d="M13.97 0.88 C16.24 0.84, 17.41 1.15, 18.97 2.64 C20.53 4.12, 23.03 7.31, 23.34 9.78 C23.65 12.25, 22.37 15.62, 20.82 17.46 C19.26 19.29, 16.48 20.32, 14.02 20.78 C11.55 21.24, 8.18 21.31, 6.02 20.21 C3.86 19.11, 1.9 16.42, 1.06 14.18 C0.22 11.95, 0.12 8.75, 0.99 6.81 C1.86 4.86, 4.14 3.51, 6.28 2.49 C8.42 1.46, 12.17 0.7, 13.83 0.65 C15.49 0.6, 16.22 2.03, 16.23 2.18 M16.05 0.07 C18.39 0.92, 21.38 3.17, 22.25 5.34 C23.13 7.52, 22.19 10.56, 21.31 13.13 C20.42 15.69, 18.87 19.51, 16.96 20.74 C15.05 21.97, 12.3 21.27, 9.87 20.5 C7.45 19.73, 4.09 17.66, 2.39 16.12 C0.7 14.57, -0.25 13.44, -0.28 11.24 C-0.3 9.03, 0.91 4.55, 2.24 2.87 C3.57 1.19, 5.15 1.47, 7.7 1.16 C10.25 0.86, 16.35 1.16, 17.55 1.04 C18.74 0.92, 15.1 0.14, 14.89 0.45" stroke="#1e1e1e" stroke-width="1" fill="none"></path></g><g stroke-linecap="round"><g transform="translate(1081.036317358248 89.62471834223027) rotate(0 0.09122144486946127 13.745865687636808)"><path d="M0.38 -0.79 C0.41 3.96, 0.91 23.78, 1.08 28.28 M-0.88 1.41 C-1.03 5.87, 0.1 22.5, 0.43 26.78" stroke="#1e1e1e" stroke-width="1" fill="none"></path></g></g><mask></mask><g stroke-linecap="round"><g transform="translate(1070.8407336827474 100.56632033545077) rotate(0 10.60352221342157 0.27540559493934325)"><path d="M0.58 1.18 C4.15 1.21, 18.6 -0.65, 21.78 -0.63 M-0.58 0.75 C2.88 0.98, 17.55 0.65, 21.31 0.45" stroke="#1e1e1e" stroke-width="1" fill="none"></path></g></g><mask></mask><g stroke-linecap="round"><g transform="translate(1081.2849901308211 115.98403223498838) rotate(0 5.38316751488253 5.696844026299402)"><path d="M0.9 -0.88 C2.26 0.97, 7.37 10.08, 8.77 12.27 M-0.09 1.28 C1.57 3.32, 9.48 9.18, 10.86 10.72" stroke="#1e1e1e" stroke-width="1" fill="none"></path></g></g><mask></mask><g stroke-linecap="round"><g transform="translate(1080.5389718131016 115.23801391726886) rotate(0 -4.604049607001912 7.795545890058861)"><path d="M-1.18 1.08 C-2.93 3.72, -8.38 12.71, -9.61 14.99 M0.4 0.6 C-1.03 3.01, -5.66 11.39, -7.24 13.42" stroke="#1e1e1e" stroke-width="1" fill="none"></path></g></g><mask></mask><g transform="translate(1029.8727973804764 121.23150324114249) rotate(0 52.99994659423828 25)"><text x="52.99994659423828" y="0" font-family="Virgil, Segoe UI Emoji" font-size="20px" fill="#1e1e1e" text-anchor="middle" style="white-space: pre;" direction="ltr" dominant-baseline="text-before-edge">Utilisateur</text><text x="52.99994659423828" y="25" font-family="Virgil, Segoe UI Emoji" font-size="20px" fill="#1e1e1e" text-anchor="middle" style="white-space: pre;" direction="ltr" dominant-baseline="text-before-edge">Externe</text></g><g stroke-linecap="round" transform="translate(535.6362583371169 396.1178659219945) rotate(0 51.94552590590524 20.022255192878333)"><path d="M1.34 -0.04 C25.99 0.72, 51.6 -0.48, 104.64 -0.52 M0.15 0.1 C40.69 0.41, 79.63 1.82, 103.3 -0.69 M102.29 -0.79 C102.79 10.61, 105.39 22.08, 103.37 39.37 M103.81 -0.79 C103.04 8.85, 104.53 16.34, 102.91 39.41 M103.66 41.47 C69.11 41.12, 37.6 40.79, 0.03 40 M104.81 40.22 C66.24 40.57, 30.75 41.14, 0.97 40.81 M-0.44 41.88 C-1.84 31.62, -1.83 21.78, 0.21 -1.22 M-0.62 39.16 C0.77 30.23, -0.97 20.23, 0.98 0.23" stroke="#1e1e1e" stroke-width="1" fill="none"></path></g><g transform="translate(551.051823610698 403.64012111487284) rotate(0 36.52996063232422 12.5)"><text x="36.52996063232422" y="0" font-family="Virgil, Segoe UI Emoji" font-size="20px" fill="#1e1e1e" text-anchor="middle" style="white-space: pre;" direction="ltr" dominant-baseline="text-before-edge">Serveur</text></g><g stroke-linecap="round" transform="translate(650.7953990534272 396.319048504243) rotate(0 51.94552590590524 20.022255192878333)"><path d="M0.51 1.07 C35.37 -0.1, 70.2 -0.5, 105.55 1.99 M0.89 -0.44 C22.71 0.87, 44.77 -0.79, 103.62 -0.76 M103.1 -0.3 C105.38 13.97, 103.05 26.77, 102 39.66 M103.12 0.62 C104.58 12.83, 102.88 25.26, 104.13 40.54 M102.77 41.24 C74.93 41.64, 43.95 40.74, 1.08 39.56 M103 40.07 C68.09 40.82, 32.53 41, -0.66 39.92 M-1.89 40.99 C-1.79 28.95, 0.3 15.69, -0.91 1 M0.97 40.42 C-0.52 28.88, 1.23 16.8, -0.2 -0.32" stroke="#1e1e1e" stroke-width="1" fill="none"></path></g><g transform="translate(666.2109643270082 403.84130369712136) rotate(0 36.52996063232422 12.5)"><text x="36.52996063232422" y="0" font-family="Virgil, Segoe UI Emoji" font-size="20px" fill="#1e1e1e" text-anchor="middle" style="white-space: pre;" direction="ltr" dominant-baseline="text-before-edge">Serveur</text></g><g stroke-linecap="round" transform="translate(763.1614084479115 394.7252043993569) rotate(0 51.94552590590524 20.022255192878333)"><path d="M0.65 -0.12 C31.71 -1.08, 63.58 1.44, 102.26 0.3 M0.04 0.97 C31.61 -0.23, 64.12 -0.31, 104.32 -0.8 M105.7 0.25 C103.21 9.76, 101.84 20.47, 104.36 39.88 M104.61 -0.12 C102.6 8.23, 103.82 18.22, 103.78 39.93 M104.92 40.91 C65.37 40.62, 27.86 40.18, 0.96 41.87 M104.26 40.64 C71.84 40.84, 37.18 39.94, -0.11 39.83 M-1.88 40.51 C0.59 23.14, -0.53 9.68, -0.14 -1.25 M-0.77 40.62 C0.59 31.81, -0.58 22.81, -0.09 -0.79" stroke="#1e1e1e" stroke-width="1" fill="none"></path></g><g transform="translate(778.5769737214925 402.24745959223526) rotate(0 36.52996063232422 12.5)"><text x="36.52996063232422" y="0" font-family="Virgil, Segoe UI Emoji" font-size="20px" fill="#1e1e1e" text-anchor="middle" style="white-space: pre;" direction="ltr" dominant-baseline="text-before-edge">Serveur</text></g><g stroke-linecap="round" transform="translate(701.474594856091 281.29920510003285) rotate(0 49.083485857917594 17.5)"><path d="M0.75 -0.52 C36.38 2.05, 67.8 0.36, 98.37 1.78 M-0.59 -0.69 C24.84 -1.72, 50.66 -1.76, 97.77 -0.4 M97.65 -0.67 C96.59 9.59, 98.95 19.77, 96.59 33.45 M97.18 -0.63 C98.66 13.16, 98.31 25.22, 98.88 34.44 M98.2 34.95 C63.93 34.93, 28.51 37.25, 0.36 33.22 M99.14 35.77 C67.82 35.45, 38.69 35.36, 0.92 34.05 M0.21 33.78 C-0.58 23.85, 0.19 9.46, -1.77 1.94 M0.98 35.23 C0.07 22.86, 0.18 10.55, 0.02 -0.87" stroke="#1e1e1e" stroke-width="1" fill="none"></path></g><g transform="translate(709.3181209972117 286.29920510003285) rotate(0 41.239959716796875 12.5)"><text x="41.239959716796875" y="0" font-family="Virgil, Segoe UI Emoji" font-size="20px" fill="#1e1e1e" text-anchor="middle" style="white-space: pre;" direction="ltr" dominant-baseline="text-before-edge">Sécurité</text></g><g stroke-linecap="round" transform="translate(597.6386471338533 281.29920510003296) rotate(0 43.50503149081544 17.5)"><path d="M1.66 1.99 C23.93 0.53, 51.32 2.01, 86.13 0.07 M-0.28 -0.76 C35 -0.2, 68.74 0.2, 86.86 0.9 M85.12 -0.38 C87.38 10.78, 85.35 20.34, 88.25 36.44 M87.25 0.5 C86.55 9.97, 87.38 19.61, 87.61 35.51 M88.09 34.51 C58.12 36.81, 27.67 33.19, 0.05 35.73 M86.35 34.87 C55.64 35.45, 25.41 34.72, 0.47 34.06 M-0.91 36 C-0.17 22.43, -1.81 14.3, 0.76 -1.54 M-0.2 34.68 C-0.43 21.69, -0.32 9.1, -0.77 -0.04" stroke="#1e1e1e" stroke-width="1" fill="none"></path></g><g transform="translate(604.9537067008405 286.29920510003296) rotate(0 36.189971923828125 12.5)"><text x="36.189971923828125" y="0" font-family="Virgil, Segoe UI Emoji" font-size="20px" fill="#1e1e1e" text-anchor="middle" style="white-space: pre;" direction="ltr" dominant-baseline="text-before-edge">Réseau</text></g><g stroke-linecap="round" transform="translate(36.814228784105126 203.34928923202858) rotate(0 11.220782470409574 10.496861020705751)"><path d="M11.62 0.07 C14.05 -0.15, 18.35 0.88, 20.03 2.4 C21.71 3.92, 21.75 6.77, 21.7 9.18 C21.65 11.59, 21.1 15, 19.73 16.84 C18.35 18.68, 15.71 19.69, 13.46 20.21 C11.2 20.72, 8.12 20.75, 6.21 19.91 C4.3 19.07, 3.04 17.23, 2.01 15.18 C0.99 13.12, -0.2 9.8, 0.09 7.57 C0.37 5.34, 1.57 3.04, 3.73 1.78 C5.88 0.52, 11.52 0.37, 13 0.02 C14.49 -0.34, 12.6 -0.66, 12.64 -0.35 M10.92 0.76 C13.4 0.63, 15.69 0.82, 17.74 1.89 C19.79 2.97, 22.47 4.88, 23.2 7.22 C23.94 9.57, 23.3 13.81, 22.15 15.97 C21 18.12, 18.68 19.25, 16.32 20.15 C13.96 21.05, 10.45 21.89, 7.98 21.36 C5.51 20.84, 2.57 18.96, 1.49 17 C0.4 15.03, 1.33 11.91, 1.45 9.56 C1.56 7.21, 0.56 4.35, 2.17 2.91 C3.78 1.46, 9.46 1.16, 11.1 0.91 C12.74 0.65, 12.27 1.39, 12.02 1.38" stroke="#1e1e1e" stroke-width="1" fill="none"></path></g><g stroke-linecap="round"><g transform="translate(48.008538256575775 223.9063231010026) rotate(0 0.18850920638271873 13.485298135887945)"><path d="M0.18 0.12 C0.24 4.71, 1.51 21.88, 1.57 26.58 M-1.18 -0.86 C-1.29 3.97, 1.01 23.27, 1.18 27.83" stroke="#1e1e1e" stroke-width="1" fill="none"></path></g></g><mask></mask><g stroke-linecap="round"><g transform="translate(37.812954581075246 234.84792509422266) rotate(0 10.550831971488662 0.6383155762916317)"><path d="M1.07 -0.53 C4.53 -0.31, 17.75 1.42, 20.93 1.42 M0.17 1.81 C3.46 1.71, 16.25 0.16, 20.01 -0.09" stroke="#1e1e1e" stroke-width="1" fill="none"></path></g></g><mask></mask><g stroke-linecap="round"><g transform="translate(48.25721102914895 250.26563699376027) rotate(0 5.096714519343834 6.103603017881653)"><path d="M0.04 1.17 C1.41 2.98, 7.65 8.85, 9.24 10.37 M-1.39 0.74 C0.27 2.73, 9.91 9.74, 11.59 11.47" stroke="#1e1e1e" stroke-width="1" fill="none"></path></g></g><mask></mask><g stroke-linecap="round"><g transform="translate(47.51119271142943 249.51961867604075) rotate(0 -4.638163766398748 6.619904233093848)"><path d="M-0.7 -0.82 C-2.26 1.15, -7.99 10.71, -9.28 13.01 M1.13 1.36 C-0.62 3.96, -8.73 11.99, -10.4 14.06" stroke="#1e1e1e" stroke-width="1" fill="none"></path></g></g><mask></mask><g transform="translate(19.32499874755422 255.51310799991438) rotate(0 30.51996612548828 25)"><text x="30.51996612548828" y="0" font-family="Virgil, Segoe UI Emoji" font-size="20px" fill="#1e1e1e" text-anchor="middle" style="white-space: pre;" direction="ltr" dominant-baseline="text-before-edge">Devs.</text><text x="30.51996612548828" y="25" font-family="Virgil, Segoe UI Emoji" font-size="20px" fill="#1e1e1e" text-anchor="middle" style="white-space: pre;" direction="ltr" dominant-baseline="text-before-edge">Cedille</text></g><g stroke-linecap="round" transform="translate(148.22630819072162 58.0121386880777) rotate(0 84.80531701080201 42.5)"><path d="M-1.6 -0.79 C45.42 -1.03, 94.23 -0.47, 169.09 -0.67 M-0.08 -0.79 C34.08 0.22, 70.42 -0.51, 168.63 -0.63 M169.38 1.42 C168.91 28.73, 171.06 55.93, 169.64 84.95 M170.53 0.18 C168.51 30.1, 169.77 60.74, 170.58 85.77 M169.17 86.83 C128.05 85.75, 88.4 85.28, 0.21 83.78 M168.99 84.11 C127.4 85.26, 82.48 85.46, 0.98 85.23 M-1.59 85.05 C-1.48 59.61, 0.19 39.06, 1.06 0.86 M-0.89 85.13 C1.21 59.14, 1.41 32, -0.05 0.83" stroke="#1e1e1e" stroke-width="1" fill="none"></path></g><g transform="translate(154.4717039368752 75.5121386880777) rotate(0 78.55992126464844 25)"><text x="78.55992126464844" y="0" font-family="Virgil, Segoe UI Emoji" font-size="20px" fill="#1e1e1e" text-anchor="middle" style="white-space: pre;" direction="ltr" dominant-baseline="text-before-edge">Code Source </text><text x="78.55992126464844" y="25" font-family="Virgil, Segoe UI Emoji" font-size="20px" fill="#1e1e1e" text-anchor="middle" style="white-space: pre;" direction="ltr" dominant-baseline="text-before-edge">Infrsastructure</text></g><g stroke-linecap="round"><g transform="translate(80.88395742234934 122.86077248558024) rotate(0 31.304712561909753 0.015396034074683485)"><path d="M-0.79 -0.3 C23.45 0.43, 42.76 -0.56, 61.27 -0.59 M-0.77 0.62 C21.14 0.31, 39.86 -0.27, 63.4 0.29" stroke="#1e1e1e" stroke-width="1" fill="none"></path></g><g transform="translate(80.88395742234934 122.86077248558024) rotate(0 31.304712561909753 0.015396034074683485)"><path d="M64.18 -1.54 L51.05 4.62 L48.5 -7.22 L63.87 1.92" stroke="none" stroke-width="0" fill="#1e1e1e" fill-rule="evenodd"></path><path d="M62.81 0.06 C60.03 2.55, 53.59 3.97, 48.31 6.18 M62.82 0.76 C59.52 2.09, 53.82 3.71, 49.91 6.84 M49.02 7.23 C50.44 3.36, 49.85 -0.88, 50.56 -6.52 M49.17 6.49 C49.9 2.43, 50.33 -1.87, 49.46 -6.29 M48.46 -5.5 C52.36 -4.1, 57.83 -3.49, 62.72 1.04 M50.61 -5.92 C53.22 -3.75, 58.5 -2.1, 63.25 0.05 M63.4 0.29 C63.4 0.29, 63.4 0.29, 63.4 0.29 M63.4 0.29 C63.4 0.29, 63.4 0.29, 63.4 0.29" stroke="#1e1e1e" stroke-width="1" fill="none"></path></g></g><mask></mask><g stroke-linecap="round"><g transform="translate(227.63727968097396 144.96070485562473) rotate(0 0.5109826243830753 18.347015339360496)"><path d="M1.81 0.25 C-0.63 8.95, -1.96 18.85, 0.6 36.77 M0.72 -0.12 C-1.24 7.54, 0.01 16.85, 0.02 36.81" stroke="#1e1e1e" stroke-width="1" fill="none"></path></g><g transform="translate(227.63727968097396 144.96070485562473) rotate(0 0.5109826243830753 18.347015339360496)"><path d="M3.13 -1.6 L5.2 13.46 L-5.56 14.67 L1.96 -1.13" stroke="none" stroke-width="0" fill="#1e1e1e" fill-rule="evenodd"></path><path d="M3.17 0.45 C2.6 3.46, 2.82 7.38, 6.92 14.35 M2.35 0.17 C2.02 2.9, 3.99 6.89, 6.49 14.39 M7.22 15.02 C1.93 13.99, -2.09 13.18, -5.41 14.21 M6.81 14.85 C3.2 14.51, -1.84 13.49, -6.09 12.91 M-7.43 13.4 C-2.68 7.09, -0.45 3.74, 1.71 -0.68 M-6.6 13.48 C-3.76 10.49, -2.98 7.37, 1.75 -0.34 M1.81 0.25 C1.81 0.25, 1.81 0.25, 1.81 0.25 M1.81 0.25 C1.81 0.25, 1.81 0.25, 1.81 0.25" stroke="#1e1e1e" stroke-width="1" fill="none"></path></g><g transform="translate(227.63727968097396 144.96070485562473) rotate(0 0.5109826243830753 18.347015339360496)"><path d="M1.34 34.96 L-7.89 22.3 L6.63 24.75 L0.17 35.42" stroke="none" stroke-width="0" fill="#1e1e1e" fill-rule="evenodd"></path><path d="M1.38 37 C-2.02 32.78, -4.75 29.48, -6.16 23.19 M0.56 36.72 C-2.06 33.39, -2.59 31.25, -6.6 23.22 M-5.86 23.86 C-1.79 23.14, 3.58 22.79, 6.77 24.29 M-6.28 23.69 C-1.87 23.74, 1.13 23.11, 6.09 22.99 M4.76 23.48 C3.79 27.6, 0.54 34.62, -0.08 35.88 M5.59 23.56 C5.73 26.21, 3.56 28.7, -0.04 36.22 M0.02 36.81 C0.02 36.81, 0.02 36.81, 0.02 36.81 M0.02 36.81 C0.02 36.81, 0.02 36.81, 0.02 36.81" stroke="#1e1e1e" stroke-width="1" fill="none"></path></g></g><mask></mask><g stroke-linecap="round"><g transform="translate(232.1550415141336 233.34420824656718) rotate(0 -0.5531576336884427 19.368426948331546)"><path d="M-0.52 -0.67 C-1.56 11, 0.76 22.61, -1.7 38.42 M-0.98 -0.63 C0.48 14.96, 0.09 28.81, 0.59 39.41" stroke="#1e1e1e" stroke-width="1" fill="none"></path></g><g transform="translate(232.1550415141336 233.34420824656718) rotate(0 -0.5531576336884427 19.368426948331546)"><path d="M-1.9 -1.69 L6.27 14.56 L-6.73 11.53 L-0.32 -2.31" stroke="none" stroke-width="0" fill="#1e1e1e" fill-rule="evenodd"></path><path d="M-0.91 -1.18 C-0.02 2.91, 3.55 6.95, 4.62 11.77 M-1.26 -1.15 C2.04 4.63, 4.07 9.09, 6.33 12.51 M5.82 12.9 C1.92 12.67, -2.71 14.13, -6.65 11.78 M6.41 13.42 C1.55 12.92, -1.94 12.86, -6.3 12.31 M-6.72 12 C-5.23 8.93, -2.44 2.53, -1.85 0.78 M-6.14 13.09 C-4.77 8.05, -2.54 3.1, -0.5 -1.33 M-0.52 -0.67 C-0.52 -0.67, -0.52 -0.67, -0.52 -0.67 M-0.52 -0.67 C-0.52 -0.67, -0.52 -0.67, -0.52 -0.67" stroke="#1e1e1e" stroke-width="1" fill="none"></path></g><g transform="translate(232.1550415141336 233.34420824656718) rotate(0 -0.5531576336884427 19.368426948331546)"><path d="M-0.79 38.4 L-5.65 27.62 L6.7 24.26 L0.79 37.78" stroke="none" stroke-width="0" fill="#1e1e1e" fill-rule="evenodd"></path><path d="M0.2 38.9 C-2.86 35.31, -3.01 31.65, -7.3 24.83 M-0.15 38.93 C-1.76 34.92, -4.45 29.6, -5.59 25.57 M-6.1 25.96 C-0.88 25.5, 3.61 26.85, 6.78 24.51 M-5.51 26.48 C-2.71 25.73, 1.47 25.57, 7.13 25.05 M6.71 24.73 C3.67 31.19, 2.18 34.28, -0.74 40.87 M7.29 25.82 C4.29 30.09, 2.35 34.38, 0.61 38.75 M0.59 39.41 C0.59 39.41, 0.59 39.41, 0.59 39.41 M0.59 39.41 C0.59 39.41, 0.59 39.41, 0.59 39.41" stroke="#1e1e1e" stroke-width="1" fill="none"></path></g></g><mask></mask><g stroke-linecap="round"><g transform="translate(76.16961255806382 269.7237841920971) rotate(0 34.607473165624015 17.496214385093936)"><path d="M-1.89 -0.38 C22.23 10.68, 42.04 19.91, 71.11 35.37 M0.24 0.5 C19.69 10.1, 40.64 19.44, 70.46 34.45" stroke="#1e1e1e" stroke-width="1" fill="none"></path></g><g transform="translate(76.16961255806382 269.7237841920971) rotate(0 34.607473165624015 17.496214385093936)"><path d="M70.93 36.07 L55.61 32.74 L61.27 21.12 L70.66 35.87" stroke="none" stroke-width="0" fill="#1e1e1e" fill-rule="evenodd"></path><path d="M69.05 34.16 C66.12 34.17, 59.91 33.04, 56.4 35.21 M70.64 34.82 C66.06 34.17, 62.36 33.75, 55.92 34.51 M56.15 33.82 C58 31.39, 59.54 25.2, 61.1 23.22 M55.05 34.05 C57.3 29.86, 59.96 25.31, 61.37 22.16 M60.39 23.5 C64.02 25.66, 65.83 31.83, 71.03 33.29 M60.92 22.52 C64.48 26.32, 67.92 30.44, 69.88 34.42 M70.46 34.45 C70.46 34.45, 70.46 34.45, 70.46 34.45 M70.46 34.45 C70.46 34.45, 70.46 34.45, 70.46 34.45" stroke="#1e1e1e" stroke-width="1" fill="none"></path></g></g><mask></mask><g stroke-linecap="round"><g transform="translate(90.14307744374867 401.2293226038096) rotate(0 28.105243228292636 -39.917105656237425)"><path d="M0.47 -0.16 C14.05 -22.15, 31.75 -39.88, 55.66 -79.72 M-0.11 -0.12 C13.75 -19.24, 26.86 -36.56, 56.32 -77.74" stroke="#1e1e1e" stroke-width="1" fill="none"></path></g><g transform="translate(90.14307744374867 401.2293226038096) rotate(0 28.105243228292636 -39.917105656237425)"><path d="M56.47 -79.12 L53.72 -64.63 L43.43 -68.99 L56.76 -77.05" stroke="none" stroke-width="0" fill="#1e1e1e" fill-rule="evenodd"></path><path d="M56.67 -77.86 C54.26 -74.98, 55.62 -68.81, 53.34 -64.47 M56.24 -77.82 C56.23 -74.66, 55.48 -70.36, 53.84 -62.99 M54.13 -61.84 C50.64 -66.36, 47.39 -66.98, 43.98 -69.18 M53.45 -63.14 C50.27 -66.41, 46.11 -69.2, 43.38 -70.35 M43.13 -71.35 C45.06 -70.77, 50.09 -75.13, 57.19 -76.27 M43.17 -71.01 C47.49 -73.39, 51.13 -75.13, 56.98 -77.34 M56.32 -77.74 C56.32 -77.74, 56.32 -77.74, 56.32 -77.74 M56.32 -77.74 C56.32 -77.74, 56.32 -77.74, 56.32 -77.74" stroke="#1e1e1e" stroke-width="1" fill="none"></path></g></g><mask></mask><g stroke-linecap="round"><g transform="translate(800.7935773442962 300.762624003681) rotate(0 128.11484731982284 -10.835658599731744)"><path d="M-1.26 -1.24 C73.28 -4.74, 144.43 -13.54, 256.49 -21.22 M0.57 -0.45 C90.57 -6.9, 180.5 -14.86, 257.49 -21.17" stroke="#1e1e1e" stroke-width="1" fill="none"></path></g><g transform="translate(800.7935773442962 300.762624003681) rotate(0 128.11484731982284 -10.835658599731744)"><path d="M257.7 -22.81 L244.67 -12.3 L243.85 -25.67 L259.22 -19.5" stroke="none" stroke-width="0" fill="#1e1e1e" fill-rule="evenodd"></path><path d="M256.31 -22.33 C254.78 -18.01, 250.02 -18.47, 243.52 -13.37 M258.03 -21.59 C253.38 -18.2, 248.7 -15.97, 244.45 -13.32 M244.7 -14.86 C244.15 -16.74, 244.58 -19.45, 244.39 -27.2 M245.05 -14.33 C244.48 -17.95, 244.03 -20.92, 243.03 -26.65 M242.09 -24.9 C248.91 -25.61, 254.12 -21.17, 257.84 -21.47 M243.44 -27.02 C246.61 -24.89, 251.62 -23.07, 257.82 -21.1 M257.49 -21.17 C257.49 -21.17, 257.49 -21.17, 257.49 -21.17 M257.49 -21.17 C257.49 -21.17, 257.49 -21.17, 257.49 -21.17" stroke="#1e1e1e" stroke-width="1" fill="none"></path></g></g><mask></mask><g stroke-linecap="round"><g transform="translate(824.7480885768989 242.60333477127574) rotate(0 114.95760563915371 18.924166290532696)"><path d="M1.05 1.22 C66.25 10.63, 132.07 23.5, 229.41 36.81 M0.51 0.43 C66.47 11.77, 131.98 22.88, 228.36 37.41" stroke="#1e1e1e" stroke-width="1" fill="none"></path></g><g transform="translate(824.7480885768989 242.60333477127574) rotate(0 114.95760563915371 18.924166290532696)"><path d="M228.55 38.84 L214.39 42.29 L217.63 30.74 L229.54 36.19" stroke="none" stroke-width="0" fill="#1e1e1e" fill-rule="evenodd"></path><path d="M229.29 38.49 C223.95 37.05, 218.97 40.11, 214.7 41.43 M228.81 37.8 C224.56 38.55, 220.07 40.15, 213.77 41.96 M213.99 42.06 C215.44 37.94, 216.43 30.97, 215.73 28.93 M214.25 41.01 C214.53 38.2, 214.53 34.36, 216.21 29.03 M216.46 27.92 C219.64 32.4, 222.09 32.62, 227.88 37.29 M215.31 29.04 C219.3 31.42, 221.72 32.93, 227.9 37.76 M228.36 37.41 C228.36 37.41, 228.36 37.41, 228.36 37.41 M228.36 37.41 C228.36 37.41, 228.36 37.41, 228.36 37.41" stroke="#1e1e1e" stroke-width="1" fill="none"></path></g></g><mask></mask><g stroke-linecap="round"><g transform="translate(864.6722739645702 139.97018168216573) rotate(0 87.17414957538438 0.2275602011926594)"><path d="M-0.24 -1.97 C37.39 -0.55, 78.3 -1.03, 173.44 2.42 M0.43 0.02 C42.32 -0.11, 84.43 0.08, 174.59 1.18" stroke="#1e1e1e" stroke-width="1" fill="none"></path></g><g transform="translate(864.6722739645702 139.97018168216573) rotate(0 87.17414957538438 0.2275602011926594)"><path d="M175.02 1.86 L162.65 9.04 L162.24 -6.54 L174.44 0.66" stroke="none" stroke-width="0" fill="#1e1e1e" fill-rule="evenodd"></path><path d="M174.41 -0.3 C170.63 3.01, 169.29 3.86, 160.75 8.43 M174.91 1.19 C171.27 3.16, 167.78 4.63, 161.61 7.5 M161.67 8.6 C161.92 3.86, 160.82 1.88, 160.78 -4.15 M161.07 7.43 C160.5 4.48, 161.24 2.12, 160.67 -5.87 M161.92 -3.84 C166.8 -2.92, 171.35 -0.18, 173.39 1.21 M161.71 -4.91 C164.21 -3.86, 166.3 -2.2, 173.92 1.27 M174.59 1.18 C174.59 1.18, 174.59 1.18, 174.59 1.18 M174.59 1.18 C174.59 1.18, 174.59 1.18, 174.59 1.18" stroke="#1e1e1e" stroke-width="1" fill="none"></path></g></g><mask></mask><g stroke-linecap="round" transform="translate(1084.1999177588177 353.84266846617106) rotate(0 11.220782470409517 10.496861020705751)"><path d="M12.44 0.79 C14.55 1.03, 17.1 2.32, 18.85 3.92 C20.6 5.51, 22.71 8.21, 22.94 10.35 C23.16 12.5, 21.65 15.08, 20.21 16.77 C18.78 18.46, 16.57 19.81, 14.31 20.47 C12.05 21.14, 8.84 21.9, 6.63 20.78 C4.43 19.65, 2.1 15.89, 1.08 13.73 C0.06 11.57, -0.26 9.66, 0.51 7.82 C1.27 5.97, 3.44 4.06, 5.68 2.68 C7.92 1.29, 12.62 -0.12, 13.94 -0.5 C15.25 -0.89, 13.78 -0.07, 13.59 0.37 M6.46 1.31 C8.16 0.34, 10.4 -0.88, 12.81 -0.42 C15.22 0.04, 19.47 2.38, 20.92 4.06 C22.37 5.75, 21.5 7.34, 21.49 9.7 C21.49 12.06, 22.57 16.2, 20.9 18.21 C19.22 20.22, 13.83 21.53, 11.45 21.78 C9.07 22.02, 8.47 21.1, 6.6 19.66 C4.72 18.21, 1.18 15.51, 0.2 13.11 C-0.77 10.7, -0.23 7.43, 0.76 5.22 C1.75 3.01, 5.43 0.5, 6.15 -0.16 C6.86 -0.82, 4.76 0.77, 5.05 1.28" stroke="#1e1e1e" stroke-width="1" fill="none"></path></g><g stroke-linecap="round"><g transform="translate(1095.3942272312884 374.3997023351451) rotate(0 -0.31871158396575083 14.146496972452951)"><path d="M0.29 0.6 C0.54 5.22, 0.18 22.66, 0.36 26.96 M-1.02 -0.13 C-0.83 4.74, -1 23.84, -0.66 28.43" stroke="#1e1e1e" stroke-width="1" fill="none"></path></g></g><mask></mask><g stroke-linecap="round"><g transform="translate(1085.1986435557878 385.34130432836514) rotate(0 10.037328114233674 -0.2527524662055498)"><path d="M-0.14 -0.14 C3.44 -0.31, 18.12 -0.59, 21.74 -0.43 M-1.67 -1.26 C1.8 -1.34, 17.43 0.74, 21.24 0.76" stroke="#1e1e1e" stroke-width="1" fill="none"></path></g></g><mask></mask><g stroke-linecap="round"><g transform="translate(1095.6429000038615 400.75901622790275) rotate(0 5.252826089395626 5.565144559594046)"><path d="M0.85 -0.67 C2.65 1.32, 9.06 9.82, 10.66 11.81 M-0.16 1.59 C1.56 3.24, 8.4 8.18, 10.09 10.01" stroke="#1e1e1e" stroke-width="1" fill="none"></path></g></g><mask></mask><g stroke-linecap="round"><g transform="translate(1094.896881686142 400.01299791018323) rotate(0 -4.198142183058621 7.691400446447062)"><path d="M0.72 0.61 C-0.83 3.05, -6.82 11.62, -8.44 13.94 M-0.37 -0.11 C-2.1 2.59, -7.55 13.38, -9.11 15.49" stroke="#1e1e1e" stroke-width="1" fill="none"></path></g></g><mask></mask><g transform="translate(1066.7106877222668 406.00648723405686) rotate(0 30.51996612548828 25)"><text x="30.51996612548828" y="0" font-family="Virgil, Segoe UI Emoji" font-size="20px" fill="#1e1e1e" text-anchor="middle" style="white-space: pre;" direction="ltr" dominant-baseline="text-before-edge">SRE</text><text x="30.51996612548828" y="25" font-family="Virgil, Segoe UI Emoji" font-size="20px" fill="#1e1e1e" text-anchor="middle" style="white-space: pre;" direction="ltr" dominant-baseline="text-before-edge">Cedille</text></g><g stroke-linecap="round"><g transform="translate(826.7442978462825 240.77874978603563) rotate(0 121.6992126627299 88.41981754715295)"><path d="M0.79 -0.36 C84.27 61.98, 167.37 119.94, 243.57 177.2 M-0.48 -0.09 C88.66 61.93, 176.9 124.87, 243.88 175.98" stroke="#1e1e1e" stroke-width="1" fill="none"></path></g><g transform="translate(826.7442978462825 240.77874978603563) rotate(0 121.6992126627299 88.41981754715295)"><path d="M242.71 177.66 L229.9 174.57 L235.26 162.47 L242.2 174.16" stroke="none" stroke-width="0" fill="#1e1e1e" fill-rule="evenodd"></path><path d="M244.69 175.61 C239.57 176.3, 234.07 172.54, 229.23 173.47 M243.39 175.88 C238.49 174.83, 233.99 173.19, 229.55 172.22 M228.62 173.56 C231.55 168.9, 232.97 167.63, 237.26 161.79 M229.07 172.73 C231.75 168.77, 234.53 165.09, 236.29 162.74 M236.91 161.85 C240.28 166.51, 242.54 174, 244.5 177.31 M236.39 163.32 C238.87 165.38, 240.88 168.73, 243.37 175.6 M243.88 175.98 C243.88 175.98, 243.88 175.98, 243.88 175.98 M243.88 175.98 C243.88 175.98, 243.88 175.98, 243.88 175.98" stroke="#1e1e1e" stroke-width="1" fill="none"></path></g></g><mask></mask><g stroke-linecap="round"><g transform="translate(801.791681978988 298.66881859815885) rotate(0 135.6399897407921 61.02177743563146)"><path d="M0.71 1.35 C81.26 35.12, 161.55 72.93, 271.36 122.21 M-0.08 -0.16 C102.04 45.08, 203.67 90.61, 270.66 120.85" stroke="#1e1e1e" stroke-width="1" fill="none"></path></g><g transform="translate(801.791681978988 298.66881859815885) rotate(0 135.6399897407921 61.02177743563146)"><path d="M271.36 122.49 L254.15 120.75 L259.18 107.67 L271.01 119.39" stroke="none" stroke-width="0" fill="#1e1e1e" fill-rule="evenodd"></path><path d="M271.38 122.22 C266.46 119.53, 261.77 121.48, 256.55 122.5 M270.58 120.68 C265.69 120.2, 259.7 120.28, 255.84 121.13 M255.57 120.26 C255.83 119.49, 258.68 114.52, 261.59 110.73 M255.61 120.55 C257.38 116.78, 258.56 113.57, 261.42 109.82 M261.55 108.15 C264.43 114.49, 268.21 118.68, 269.98 120.77 M261.16 108.8 C265.05 113.07, 267.79 117.73, 270.84 121.46 M270.66 120.85 C270.66 120.85, 270.66 120.85, 270.66 120.85 M270.66 120.85 C270.66 120.85, 270.66 120.85, 270.66 120.85" stroke="#1e1e1e" stroke-width="1" fill="none"></path></g></g><mask></mask><g stroke-linecap="round"><g transform="translate(324.69766659631705 206.84319220651514) rotate(0 61.83258031197374 -21.09643610747173)"><path d="M0.36 -1.78 C33.41 -11.39, 68.1 -21.18, 123.31 -41.25 M0.92 -0.95 C35.51 -12.15, 70.26 -22.57, 121.16 -40.38" stroke="#1e1e1e" stroke-width="1" fill="none"></path></g><g transform="translate(324.69766659631705 206.84319220651514) rotate(0 61.83258031197374 -21.09643610747173)"><path d="M119.65 -40.68 L108.65 -31.81 L106.59 -43.46 L119.64 -38.81" stroke="none" stroke-width="0" fill="#1e1e1e" fill-rule="evenodd"></path><path d="M121.43 -41.72 C118.26 -36.87, 116.13 -33.1, 111.49 -30.99 M121.85 -41.09 C118.39 -38.12, 115.1 -34.36, 109.87 -30.34 M109.21 -28.77 C109.39 -35.2, 108.21 -37.18, 106.54 -42.25 M110.35 -30.55 C108.76 -33.28, 108.7 -36.13, 106.52 -41.94 M106.44 -40.96 C110.44 -40.14, 112.7 -41.17, 122.4 -41.15 M106.74 -42.7 C111.32 -41.64, 117.59 -40.04, 121.21 -40.9 M121.16 -40.38 C121.16 -40.38, 121.16 -40.38, 121.16 -40.38 M121.16 -40.38 C121.16 -40.38, 121.16 -40.38, 121.16 -40.38" stroke="#1e1e1e" stroke-width="1" fill="none"></path></g></g><mask></mask></svg>